<?xml version="1.0" encoding="UTF-8" standalone="no"?>
<svg
   xmlns:dc="http://purl.org/dc/elements/1.1/"
   xmlns:cc="http://creativecommons.org/ns#"
   xmlns:rdf="http://www.w3.org/1999/02/22-rdf-syntax-ns#"
   xmlns:svg="http://www.w3.org/2000/svg"
   xmlns="http://www.w3.org/2000/svg"
   xmlns:sodipodi="http://sodipodi.sourceforge.net/DTD/sodipodi-0.dtd"
   xmlns:inkscape="http://www.inkscape.org/namespaces/inkscape"
   inkscape:version="1.0 (4035a4fb49, 2020-05-01)"
   sodipodi:docname="shopping-cart.svg"
   xml:space="preserve"
   style="enable-background:new 0 0 424.449 424.449;"
   viewBox="0 0 424.449 424.449"
   y="0px"
   x="0px"
   id="Capa_1"
   version="1.1"><metadata
   id="metadata49"><rdf:RDF><cc:Work
       rdf:about=""><dc:format>image/svg+xml</dc:format><dc:type
         rdf:resource="http://purl.org/dc/dcmitype/StillImage" /></cc:Work></rdf:RDF></metadata><defs
   id="defs47" /><sodipodi:namedview
   inkscape:current-layer="Capa_1"
   inkscape:window-maximized="1"
   inkscape:window-y="-8"
   inkscape:window-x="-8"
   inkscape:cy="216.78711"
   inkscape:cx="148.65215"
   inkscape:zoom="0.9629136"
   showgrid="false"
   id="namedview45"
   inkscape:window-height="745"
   inkscape:window-width="1360"
   inkscape:pageshadow="2"
   inkscape:pageopacity="0"
   guidetolerance="10"
   gridtolerance="10"
   objecttolerance="10"
   borderopacity="1"
   bordercolor="#666666"
   pagecolor="#ffffff" />
<g
   style="fill:#ff6666;fill-opacity:1"
   id="g12">
	<g
   style="fill:#ff6666;fill-opacity:1"
   id="g10">
		<g
   style="fill:#ff6666;fill-opacity:1"
   id="g8">
			<circle
   style="fill:#ff6666;fill-opacity:1"
   id="circle2"
   r="50.176"
   cy="374.273"
   cx="170.241" />
			<path
   style="fill:#ff6666;fill-opacity:1"
   id="path4"
   d="M316.673,324.098L316.673,324.098c-27.711,0-50.176,22.465-50.176,50.176s22.465,50.176,50.176,50.176     c27.711,0,50.176-22.465,50.176-50.176S344.384,324.098,316.673,324.098z" />
			<path
   style="fill:#ff6666;fill-opacity:1"
   id="path6"
   d="M402.177,272.897H140.545l-5.12-29.696h215.04c6.326,0.019,12.017-3.843,14.336-9.728l51.2-129.024     c3.111-7.892-0.766-16.812-8.658-19.922c-1.808-0.713-3.735-1.076-5.678-1.07H108.801L96.513,12.801     c-1.262-7.471-7.784-12.906-15.36-12.8h-58.88c-8.483,0-15.36,6.877-15.36,15.36s6.877,15.36,15.36,15.36h46.08l44.032,260.096     c1.262,7.471,7.784,12.906,15.36,12.8h274.432c8.483,0,15.36-6.877,15.36-15.36C417.537,279.774,410.66,272.897,402.177,272.897z     " />
		</g>
	</g>
</g>
<g
   id="g14">
</g>
<g
   id="g16">
</g>
<g
   id="g18">
</g>
<g
   id="g20">
</g>
<g
   id="g22">
</g>
<g
   id="g24">
</g>
<g
   id="g26">
</g>
<g
   id="g28">
</g>
<g
   id="g30">
</g>
<g
   id="g32">
</g>
<g
   id="g34">
</g>
<g
   id="g36">
</g>
<g
   id="g38">
</g>
<g
   id="g40">
</g>
<g
   id="g42">
</g>
</svg>
